<?xml version="1.0" standalone="no"?>
<!DOCTYPE svg PUBLIC "-//W3C//DTD SVG 20010904//EN"
 "http://www.w3.org/TR/2001/REC-SVG-20010904/DTD/svg10.dtd">
<svg version="1.0" xmlns="http://www.w3.org/2000/svg"
 width="512.000000pt" height="512.000000pt" viewBox="0 0 512.000000 512.000000"
 preserveAspectRatio="xMidYMid meet">

<g transform="translate(0.000000,512.000000) scale(0.100000,-0.100000)"
fill="#000000" stroke="none">
<path d="M229 5097 c-24 -13 -57 -43 -74 -66 l-30 -43 -3 -1572 -2 -1572 20
-22 c28 -30 82 -30 110 0 20 22 20 26 20 1569 0 1394 2 1549 16 1563 14 14
209 16 1998 16 1908 0 1984 -1 1999 -18 12 -13 17 -37 17 -85 l0 -67 -249 0
c-137 0 -257 -3 -266 -6 -24 -10 -46 -60 -39 -89 14 -56 8 -55 522 -55 463 0
475 -1 512 -21 68 -39 75 -60 78 -269 3 -178 2 -187 -20 -229 -45 -85 -16 -81
-659 -81 -672 0 -615 11 -620 -123 -4 -73 -8 -89 -34 -128 l-30 -44 -5 85 c-5
68 -11 95 -34 136 -34 63 -56 74 -149 74 -83 0 -125 19 -157 72 -18 30 -20 51
-20 229 0 187 1 198 23 230 38 58 74 69 219 69 69 0 134 3 143 6 26 10 45 63
34 93 -18 45 -35 50 -180 51 -169 0 -218 -13 -289 -76 -92 -84 -95 -93 -98
-366 l-3 -238 -252 0 c-234 0 -254 -2 -285 -20 -18 -11 -41 -34 -52 -52 -19
-31 -20 -51 -20 -408 0 -357 1 -377 20 -408 11 -18 34 -41 52 -52 32 -19 52
-20 777 -20 738 0 744 0 778 21 18 12 42 38 53 60 19 36 20 60 20 349 l0 310
115 0 115 0 0 -1858 c0 -1788 -1 -1860 -18 -1875 -17 -16 -170 -17 -2000 -17
-1787 0 -1982 2 -1996 16 -14 14 -16 91 -16 695 0 417 -4 687 -10 698 -5 10
-22 24 -39 30 -24 10 -34 10 -60 -3 -17 -9 -33 -26 -36 -39 -3 -12 -4 -335 -3
-719 l3 -696 30 -43 c17 -23 50 -53 74 -66 l45 -23 2021 2 2021 3 43 28 c29
20 50 44 67 80 l24 52 0 1867 0 1866 173 4 c155 3 176 5 214 26 66 35 110 79
140 140 l28 57 0 220 c0 158 -4 231 -13 258 -23 64 -85 132 -149 163 -56 28
-65 29 -225 32 l-166 4 -4 86 c-4 105 -25 153 -87 197 l-43 30 -2022 3 -2022
2 -45 -23z m2871 -1142 c20 -24 118 -55 174 -55 40 0 55 -4 60 -16 10 -25 7
-108 -5 -161 -10 -42 -9 -55 6 -87 20 -42 59 -66 108 -66 40 0 138 60 181 111
38 44 74 122 82 176 l6 43 104 0 104 0 0 -295 0 -295 -700 0 -700 0 0 330 0
330 284 0 c237 0 286 -2 296 -15z"/>
<path d="M521 4704 c-34 -43 -26 -86 20 -109 41 -21 387 -21 428 0 46 23 54
66 20 109 l-20 26 -214 0 -214 0 -20 -26z"/>
<path d="M1232 4713 c-12 -10 -24 -30 -28 -45 -5 -22 0 -34 25 -58 l30 -31
307 3 306 3 19 24 c26 32 24 73 -4 99 -23 22 -29 22 -329 22 -277 0 -308 -2
-326 -17z"/>
<path d="M2130 4710 c-30 -30 -27 -83 6 -109 25 -20 40 -21 215 -21 200 0 229
5 248 47 16 34 14 47 -10 77 l-20 26 -210 0 c-196 0 -210 -1 -229 -20z"/>
<path d="M526 4426 c-33 -32 -33 -70 -1 -101 22 -22 32 -25 105 -25 74 0 83 2
107 26 20 20 24 31 19 57 -11 52 -28 62 -121 66 -79 3 -85 2 -109 -23z"/>
<path d="M992 4440 c-22 -9 -42 -46 -42 -76 0 -8 11 -26 25 -39 l24 -25 531 0
c517 0 531 1 550 20 30 30 27 83 -6 109 -26 21 -35 21 -543 20 -285 0 -526 -4
-539 -9z"/>
<path d="M2327 4430 c-34 -27 -37 -80 -7 -110 18 -18 33 -20 130 -20 106 0
112 1 137 26 20 20 24 31 19 57 -11 55 -26 62 -144 65 -97 3 -110 2 -135 -18z"/>
<path d="M3559 4411 c-77 -78 13 -197 110 -146 57 29 68 100 22 146 -22 21
-39 29 -66 29 -27 0 -44 -8 -66 -29z"/>
<path d="M3986 4414 c-38 -38 -36 -95 3 -135 47 -47 125 -31 151 30 39 94 -82
176 -154 105z"/>
<path d="M4423 4425 c-29 -20 -46 -75 -34 -107 13 -35 58 -68 91 -68 33 0 78
33 91 68 12 32 -5 87 -34 107 -28 19 -86 19 -114 0z"/>
<path d="M607 4116 c-21 -8 -47 -22 -59 -33 -47 -43 -48 -50 -48 -443 0 -412
-1 -405 67 -457 l36 -28 747 0 747 0 36 28 c73 56 72 49 72 457 0 392 0 396
-53 443 -50 46 -58 46 -802 46 -569 0 -712 -2 -743 -13z m1443 -476 l0 -330
-700 0 -700 0 0 330 0 330 700 0 700 0 0 -330z"/>
<path d="M580 2958 c-70 -48 -75 -63 -75 -228 0 -162 4 -176 69 -224 27 -21
28 -21 1697 -24 1846 -2 1711 -7 1765 64 29 37 29 38 29 185 0 161 -4 175 -69
223 -27 21 -28 21 -1705 24 l-1678 2 -33 -22z m3340 -228 l0 -100 -1635 0
-1635 0 0 100 0 100 1635 0 1635 0 0 -100z"/>
<path d="M594 2291 c-23 -10 -52 -34 -65 -52 l-24 -34 -3 -359 c-3 -343 -2
-360 18 -400 13 -27 34 -50 59 -64 38 -22 46 -22 453 -22 414 0 415 0 448 23
18 12 43 35 54 50 20 27 21 41 24 385 3 354 2 357 -20 402 -17 33 -35 51 -68
68 -44 22 -49 22 -440 22 -364 0 -398 -2 -436 -19z m814 -458 l2 -323 -380 0
-380 0 0 325 0 325 378 -2 377 -3 3 -322z"/>
<path d="M1875 2303 c-32 -8 -84 -51 -100 -84 -13 -25 -15 -82 -13 -397 3
-361 3 -367 25 -398 46 -64 47 -64 506 -64 413 0 414 0 447 23 19 12 43 38 54
57 20 34 21 50 21 396 l0 360 -25 36 c-51 75 -37 73 -490 75 -223 0 -414 -1
-425 -4z m785 -468 l0 -325 -375 0 -375 0 0 325 0 325 375 0 375 0 0 -325z"/>
<path d="M3126 2300 c-16 -5 -40 -19 -53 -32 -53 -49 -53 -50 -53 -440 0 -345
1 -365 20 -396 11 -18 34 -41 52 -52 32 -19 52 -20 453 -20 401 0 421 1 453
20 18 11 41 34 52 52 19 31 20 51 20 399 0 363 0 366 -22 399 -13 18 -36 43
-51 54 -28 20 -40 21 -435 23 -224 1 -420 -2 -436 -7z m794 -465 l0 -325 -375
0 -375 0 0 325 0 325 375 0 375 0 0 -325z"/>
<path d="M595 1206 c-41 -18 -83 -69 -90 -109 -3 -18 -5 -188 -3 -379 3 -332
4 -348 24 -374 11 -15 33 -37 48 -48 27 -20 39 -21 456 -21 417 0 429 1 457
21 15 11 38 40 51 65 23 44 23 46 20 400 l-3 356 -29 37 c-50 66 -50 66 -498
66 -312 -1 -410 -4 -433 -14z m815 -461 l0 -325 -380 0 -380 0 0 325 0 325
380 0 380 0 0 -325z"/>
<path d="M1839 1199 c-20 -12 -46 -39 -58 -59 -20 -36 -21 -50 -21 -397 0
-357 0 -360 23 -393 12 -18 35 -43 50 -54 28 -20 40 -21 445 -24 416 -2 417
-2 456 20 22 13 49 39 60 58 20 34 21 50 21 395 0 400 0 399 -67 447 l-33 23
-420 2 c-413 3 -421 3 -456 -18z m821 -454 l0 -325 -375 0 -375 0 0 325 0 325
375 0 375 0 0 -325z"/>
<path d="M3098 1200 c-20 -11 -45 -35 -57 -53 -20 -33 -21 -46 -21 -402 0
-352 1 -369 20 -401 12 -18 40 -42 64 -53 41 -20 58 -21 441 -21 378 0 401 1
440 20 26 13 49 34 63 59 21 38 22 47 22 398 0 405 0 407 -76 450 -39 22 -43
23 -449 22 -385 0 -412 -1 -447 -19z m822 -455 l0 -325 -375 0 -375 0 0 325 0
325 375 0 375 0 0 -325z"/>
</g>
</svg>
