<?xml version="1.0" standalone="no"?>
<!DOCTYPE svg PUBLIC "-//W3C//DTD SVG 20010904//EN"
 "http://www.w3.org/TR/2001/REC-SVG-20010904/DTD/svg10.dtd">
<svg version="1.0" xmlns="http://www.w3.org/2000/svg"
 width="512.000000pt" height="512.000000pt" viewBox="0 0 512.000000 512.000000"
 preserveAspectRatio="xMidYMid meet">

<g transform="translate(0.000000,512.000000) scale(0.100000,-0.100000)"
fill="#000000" stroke="none">
<path d="M3985 4542 c-318 -313 -524 -491 -785 -678 -231 -165 -523 -324 -717
-391 l-83 -28 0 -840 0 -840 93 -34 c122 -44 325 -144 464 -228 329 -199 620
-435 1031 -838 l222 -217 0 2156 c0 1186 -1 2156 -2 2156 -2 0 -102 -98 -223
-218z"/>
<path d="M4667 3486 c-119 -78 -221 -146 -227 -152 -11 -11 144 -251 160 -247
8 3 436 278 449 289 3 3 -159 255 -163 253 -1 0 -99 -64 -219 -143z"/>
<path d="M1985 3360 c-38 -4 -356 -8 -706 -9 -593 -1 -641 -2 -711 -20 -261
-67 -475 -279 -545 -541 -27 -101 -24 -293 6 -390 94 -303 337 -506 646 -540
49 -6 390 -11 758 -13 l667 -2 0 763 0 762 -22 -2 c-13 0 -54 -4 -93 -8z"/>
<path d="M4510 2600 l0 -150 305 0 305 0 0 150 0 150 -305 0 -305 0 0 -150z"/>
<path d="M4510 2004 c-46 -68 -81 -126 -79 -128 4 -3 427 -278 445 -289 10 -6
51 51 158 215 l18 27 -194 127 c-106 70 -209 137 -229 150 l-37 23 -82 -125z"/>
<path d="M840 1538 c1 -7 54 -276 118 -598 l118 -585 362 -3 362 -2 0 300 0
300 150 0 150 0 0 150 0 150 -150 0 -150 0 0 150 0 150 -480 0 c-378 0 -480
-3 -480 -12z"/>
</g>
</svg>
