<?xml version="1.0" standalone="no"?>
<!DOCTYPE svg PUBLIC "-//W3C//DTD SVG 20010904//EN"
 "http://www.w3.org/TR/2001/REC-SVG-20010904/DTD/svg10.dtd">
<svg version="1.0" xmlns="http://www.w3.org/2000/svg"
 width="512.000000pt" height="512.000000pt" viewBox="0 0 512.000000 512.000000"
 preserveAspectRatio="xMidYMid meet">

<g transform="translate(0.000000,512.000000) scale(0.100000,-0.100000)"
fill="#000000" stroke="none">
<path d="M3380 5109 c-333 -38 -671 -206 -914 -454 -188 -191 -338 -452 -392
-681 l-17 -71 -161 -6 c-418 -15 -781 -141 -1109 -384 -119 -89 -307 -274
-392 -388 -185 -247 -311 -538 -367 -845 -28 -153 -31 -486 -5 -630 37 -213
110 -431 200 -603 l41 -78 -132 -397 c-73 -219 -132 -410 -132 -425 0 -72 75
-147 147 -147 15 0 206 59 424 132 l396 132 114 -56 c301 -148 541 -203 879
-202 234 1 354 18 552 78 313 95 575 252 809 486 365 364 557 806 576 1327 l6
161 32 6 c62 12 192 58 284 102 l94 44 317 -95 c175 -52 330 -95 344 -95 70 0
146 76 146 146 0 15 -43 170 -95 345 l-96 318 35 69 c119 236 177 564 147 832
-97 866 -865 1478 -1731 1379z m370 -304 c192 -29 363 -96 526 -205 101 -68
256 -223 324 -324 265 -396 290 -868 69 -1296 -32 -62 -49 -106 -49 -130 0
-20 27 -128 61 -239 33 -112 58 -205 56 -208 -3 -2 -96 23 -208 56 -111 34
-219 61 -239 61 -24 0 -71 -18 -140 -54 -111 -57 -261 -112 -283 -103 -7 3
-19 31 -26 63 -39 172 -152 426 -265 597 l-65 97 295 0 c276 0 297 1 334 20
45 23 80 80 80 130 0 50 -35 107 -80 130 -38 19 -58 20 -476 20 l-436 0 -51
44 c-183 156 -470 302 -725 370 -58 15 -88 28 -90 39 -2 8 9 50 23 94 192 571
774 929 1365 838z m-1521 -1229 c343 -63 638 -216 880 -456 247 -245 402 -542
468 -893 23 -128 23 -426 0 -554 -65 -348 -219 -644 -462 -888 -393 -394 -952
-561 -1505 -449 -158 32 -340 104 -509 200 -43 25 -89 44 -106 44 -17 0 -158
-43 -315 -95 -156 -52 -285 -93 -287 -92 -1 2 40 131 92 287 52 157 95 298 95
314 0 17 -22 69 -54 125 -241 428 -290 897 -140 1351 200 607 732 1038 1381
1120 96 12 362 4 462 -14z"/>
<path d="M2998 3999 c-43 -22 -78 -81 -78 -129 0 -50 35 -107 80 -130 38 -19
58 -20 570 -20 512 0 532 1 570 20 45 23 80 80 80 130 0 50 -35 107 -80 130
-38 19 -57 20 -572 20 -511 -1 -535 -2 -570 -21z"/>
<path d="M1078 2679 c-43 -22 -78 -81 -78 -129 0 -50 35 -107 80 -130 38 -20
57 -20 870 -20 813 0 832 0 870 20 45 23 80 80 80 130 0 50 -35 107 -80 130
-38 20 -57 20 -872 20 -810 -1 -834 -1 -870 -21z"/>
<path d="M1078 2079 c-43 -22 -78 -81 -78 -129 0 -50 35 -107 80 -130 38 -20
57 -20 870 -20 813 0 832 0 870 20 45 23 80 80 80 130 0 50 -35 107 -80 130
-38 20 -57 20 -872 20 -810 -1 -834 -1 -870 -21z"/>
<path d="M1078 1479 c-43 -22 -78 -81 -78 -129 0 -50 35 -107 80 -130 38 -20
57 -20 870 -20 813 0 832 0 870 20 45 23 80 80 80 130 0 50 -35 107 -80 130
-38 20 -57 20 -872 20 -810 -1 -834 -1 -870 -21z"/>
</g>
</svg>
